<mxfile host="app.diagrams.net" agent="Mozilla/5.0 (Macintosh; Intel Mac OS X 10_15_7) AppleWebKit/537.36 (KHTML, like Gecko) Chrome/130.0.0.0 Safari/537.36" version="24.9.1" pages="2">
  <diagram name="Вертикальний" id="Вертикальний">
    <mxGraphModel dx="1940" dy="1336" grid="1" gridSize="10" guides="1" tooltips="1" connect="1" arrows="1" fold="1" page="1" pageScale="1" pageWidth="1169" pageHeight="1654" math="0" shadow="0">
      <root>
        <mxCell id="0" />
        <mxCell id="1" parent="0" />
        <UserObject label="" tags="Background" id="2">
          <mxCell style="vsdxID=1;fillColor=none;gradientColor=none;shape=stencil(nZBLDoAgDERP0z3SIyjew0SURgSD+Lu9kMZoXLhwN9O+tukAlrNpJg1SzDH4QW/URgNYgZTkjA4UkwJUgGXng+6DX1zLfmoymdXo17xh5zmRJ6Q42BWCfc2oJfdAr+Yv+AP9Cb7OJ3H/2JG1HNGz/84klThPVCc=);strokeColor=#000000;strokeWidth=2;points=[];labelBackgroundColor=none;rounded=0;html=1;whiteSpace=wrap;aspect=fixed;" parent="1" vertex="1">
            <mxGeometry x="78.74" y="19.685" width="1070.86" height="1614.1699999999998" as="geometry" />
          </mxCell>
        </UserObject>
        <UserObject label="" tags="Background" id="18">
          <mxCell style="vsdxID=2;edgeStyle=none;startArrow=none;endArrow=none;startSize=5;endSize=5;strokeWidth=2;strokeColor=#000000;spacingTop=0;spacingBottom=0;spacingLeft=0;spacingRight=0;verticalAlign=middle;html=1;labelBackgroundColor=#ffffff;rounded=0;" parent="1" edge="1">
            <mxGeometry relative="1" as="geometry">
              <mxPoint as="offset" />
              <Array as="points" />
              <mxPoint x="421.25899999999996" y="1476.375" as="sourcePoint" />
              <mxPoint x="1149.604" y="1476.375" as="targetPoint" />
            </mxGeometry>
          </mxCell>
        </UserObject>
        <UserObject label="" tags="Background" id="3">
          <mxCell style="vsdxID=3;fillColor=#FFFFFF;gradientColor=none;shape=stencil(jU9bCoAwDDtN/2eLJ/BxD8HphrrJnK/bu9EPpyD4l7RJSICKRTWzBBSLd3aQu269AioBURslnfYBAVVARWed7J1dTct8bqIyosluMeFgn4gOFGfKahaO2nwKMf+rzMQjNIC7Cq9If+/a4cSTqboA);strokeColor=#000000;strokeWidth=2;points=[];labelBackgroundColor=#ffffff;rounded=0;html=1;whiteSpace=wrap;" parent="1" vertex="1">
            <mxGeometry x="421.25899999999996" y="1476.375" width="1" height="157.48" as="geometry" />
          </mxCell>
        </UserObject>
        <UserObject label="" tags="Background" id="19">
          <mxCell style="vsdxID=4;edgeStyle=none;startArrow=none;endArrow=none;startSize=5;endSize=5;strokeWidth=2;strokeColor=#000000;spacingTop=0;spacingBottom=0;spacingLeft=0;spacingRight=0;verticalAlign=middle;html=1;labelBackgroundColor=#ffffff;rounded=0;" parent="1" edge="1">
            <mxGeometry relative="1" as="geometry">
              <mxPoint as="offset" />
              <Array as="points" />
              <mxPoint x="421.25899999999996" y="1555.115" as="sourcePoint" />
              <mxPoint x="1149.604" y="1555.115" as="targetPoint" />
            </mxGeometry>
          </mxCell>
        </UserObject>
        <UserObject label="" tags="Background" id="4">
          <mxCell style="vsdxID=5;fillColor=#FFFFFF;gradientColor=none;shape=stencil(jU9bCoAwDDtN/2eLJ/BxD8HphrrJnK/bu9EPpyD4l7RJSICKRTWzBBSLd3aQu269AioBURslnfYBAVVARWed7J1dTct8bqIyosluMeFgn4gOFGfKahaO2nwKMf+rzMQjNIC7Cq9If+/a4cSTqboA);strokeColor=#000000;strokeWidth=2;points=[];labelBackgroundColor=#ffffff;rounded=0;html=1;whiteSpace=wrap;" parent="1" vertex="1">
            <mxGeometry x="677.164" y="1476.375" width="1" height="157.48" as="geometry" />
          </mxCell>
        </UserObject>
        <UserObject label="" tags="Background" id="5">
          <mxCell style="vsdxID=6;fillColor=#FFFFFF;gradientColor=none;shape=stencil(jU9bCoAwDDtN/2eLJ/BxD8HphrrJnK/bu9EPpyD4l7RJSICKRTWzBBSLd3aQu269AioBURslnfYBAVVARWed7J1dTct8bqIyosluMeFgn4gOFGfKahaO2nwKMf+rzMQjNIC7Cq9If+/a4cSTqboA);strokeColor=#000000;strokeWidth=2;points=[];labelBackgroundColor=#ffffff;rounded=0;html=1;whiteSpace=wrap;" parent="1" vertex="1">
            <mxGeometry x="488.188" y="1476.375" width="1" height="157.48" as="geometry" />
          </mxCell>
        </UserObject>
        <UserObject label="" tags="Background" id="6">
          <mxCell style="vsdxID=7;fillColor=#FFFFFF;gradientColor=none;shape=stencil(jU9bCoAwDDtN/2eLJ/BxD8HphrrJnK/bu9EPpyD4l7RJSICKRTWzBBSLd3aQu269AioBURslnfYBAVVARWed7J1dTct8bqIyosluMeFgn4gOFGfKahaO2nwKMf+rzMQjNIC7Cq9If+/a4cSTqboA);strokeColor=#000000;strokeWidth=2;points=[];labelBackgroundColor=#ffffff;rounded=0;html=1;whiteSpace=wrap;" parent="1" vertex="1">
            <mxGeometry x="578.7389999999999" y="1476.375" width="1" height="78.74" as="geometry" />
          </mxCell>
        </UserObject>
        <UserObject label="" tags="Background" id="7">
          <mxCell style="vsdxID=8;fillColor=#FFFFFF;gradientColor=none;shape=stencil(jU9bCoAwDDtN/2eLJ/BxD8HphrrJnK/bu9EPpyD4l7RJSICKRTWzBBSLd3aQu269AioBURslnfYBAVVARWed7J1dTct8bqIyosluMeFgn4gOFGfKahaO2nwKMf+rzMQjNIC7Cq9If+/a4cSTqboA);strokeColor=#000000;strokeWidth=2;points=[];labelBackgroundColor=#ffffff;rounded=0;html=1;whiteSpace=wrap;" parent="1" vertex="1">
            <mxGeometry x="637.794" y="1476.375" width="1" height="78.74" as="geometry" />
          </mxCell>
        </UserObject>
        <UserObject label="" tags="Background" id="20">
          <mxCell style="vsdxID=9;edgeStyle=none;startArrow=none;endArrow=none;startSize=5;endSize=5;strokeWidth=2;strokeColor=#000000;spacingTop=0;spacingBottom=0;spacingLeft=0;spacingRight=0;verticalAlign=middle;html=1;labelBackgroundColor=#ffffff;rounded=0;" parent="1" edge="1">
            <mxGeometry relative="1" as="geometry">
              <mxPoint as="offset" />
              <Array as="points" />
              <mxPoint x="421.25899999999996" y="1515.745" as="sourcePoint" />
              <mxPoint x="677.164" y="1515.745" as="targetPoint" />
            </mxGeometry>
          </mxCell>
        </UserObject>
        <UserObject label="" tags="Background" id="21">
          <mxCell style="vsdxID=10;edgeStyle=none;startArrow=none;endArrow=none;startSize=5;endSize=5;strokeWidth=2;strokeColor=#000000;spacingTop=0;spacingBottom=0;spacingLeft=0;spacingRight=0;verticalAlign=middle;html=1;labelBackgroundColor=#ffffff;rounded=0;" parent="1" edge="1">
            <mxGeometry relative="1" as="geometry">
              <mxPoint as="offset" />
              <Array as="points" />
              <mxPoint x="421.25899999999996" y="1594.485" as="sourcePoint" />
              <mxPoint x="677.164" y="1594.485" as="targetPoint" />
            </mxGeometry>
          </mxCell>
        </UserObject>
        <UserObject label="&lt;div style=&quot;font-size: 1px&quot;&gt;&lt;font style=&quot;font-size:12.7px;font-family:Times New Roman;color:#000000;direction:ltr;letter-spacing:0px;line-height:120%;opacity:1&quot;&gt;Розробив&lt;br/&gt;&lt;/font&gt;&lt;/div&gt;" tags="Background" id="8">
          <mxCell style="verticalAlign=middle;align=center;overflow=width;vsdxID=11;fillColor=none;gradientColor=none;shape=stencil(nZBLDoAgDERP0z3SIyjew0SURgSD+Lu9kMZoXLhwN9O+tukAlrNpJg1SzDH4QW/URgNYgZTkjA4UkwJUgGXng+6DX1zLfmoymdXo17xh5zmRJ6Q42BWCfc2oJfdAr+Yv+AP9Cb7OJ3H/2JG1HNGz/84klThPVCc=);strokeColor=none;points=[];labelBackgroundColor=none;rounded=0;html=1;whiteSpace=wrap;" parent="1" vertex="1">
            <mxGeometry x="421.25899999999996" y="1476.375" width="68" height="40" as="geometry" />
          </mxCell>
        </UserObject>
        <UserObject label="&lt;div style=&quot;font-size: 1px&quot;&gt;&lt;font style=&quot;font-size:12.7px;font-family:Times New Roman;color:#000000;direction:ltr;letter-spacing:0px;line-height:120%;opacity:1&quot;&gt;Перевірив&lt;br/&gt;&lt;/font&gt;&lt;/div&gt;" tags="Background" id="9">
          <mxCell style="verticalAlign=middle;align=center;overflow=width;vsdxID=12;fillColor=none;gradientColor=none;shape=stencil(nZBLDoAgDERP0z3SIyjew0SURgSD+Lu9kMZoXLhwN9O+tukAlrNpJg1SzDH4QW/URgNYgZTkjA4UkwJUgGXng+6DX1zLfmoymdXo17xh5zmRJ6Q42BWCfc2oJfdAr+Yv+AP9Cb7OJ3H/2JG1HNGz/84klThPVCc=);strokeColor=none;points=[];labelBackgroundColor=none;rounded=0;html=1;whiteSpace=wrap;" parent="1" vertex="1">
            <mxGeometry x="421.25899999999996" y="1515.745" width="66.929" height="39.37" as="geometry" />
          </mxCell>
        </UserObject>
        <UserObject label="&lt;div style=&quot;font-size: 1px&quot;&gt;&lt;font style=&quot;font-size:12.7px;font-family:Times New Roman;color:#000000;direction:ltr;letter-spacing:0px;line-height:120%;opacity:1&quot;&gt;Група&lt;br/&gt;&lt;/font&gt;&lt;/div&gt;" tags="Background" id="10">
          <mxCell style="verticalAlign=middle;align=center;overflow=width;vsdxID=13;fillColor=none;gradientColor=none;shape=stencil(nZBLDoAgDERP0z3SIyjew0SURgSD+Lu9kMZoXLhwN9O+tukAlrNpJg1SzDH4QW/URgNYgZTkjA4UkwJUgGXng+6DX1zLfmoymdXo17xh5zmRJ6Q42BWCfc2oJfdAr+Yv+AP9Cb7OJ3H/2JG1HNGz/84klThPVCc=);strokeColor=none;points=[];labelBackgroundColor=none;rounded=0;html=1;whiteSpace=wrap;" parent="1" vertex="1">
            <mxGeometry x="421.25899999999996" y="1555.115" width="66.929" height="39.37" as="geometry" />
          </mxCell>
        </UserObject>
        <UserObject label="&lt;div style=&quot;font-size: 1px&quot;&gt;&lt;font style=&quot;font-size:8.47px;font-family:Times New Roman;color:#000000;direction:ltr;letter-spacing:0px;line-height:120%;opacity:1&quot;&gt;Позначення документа&lt;br/&gt;&lt;/font&gt;&lt;/div&gt;" tags="Background" id="11">
          <mxCell style="verticalAlign=middle;align=center;overflow=width;vsdxID=14;fillColor=none;gradientColor=none;shape=stencil(nZBLDoAgDERP0z3SIyjew0SURgSD+Lu9kMZoXLhwN9O+tukAlrNpJg1SzDH4QW/URgNYgZTkjA4UkwJUgGXng+6DX1zLfmoymdXo17xh5zmRJ6Q42BWCfc2oJfdAr+Yv+AP9Cb7OJ3H/2JG1HNGz/84klThPVCc=);strokeColor=none;points=[];labelBackgroundColor=none;rounded=0;html=1;whiteSpace=wrap;" parent="1" vertex="1">
            <mxGeometry x="421.25899999999996" y="1594.485" width="66.929" height="39.37" as="geometry" />
          </mxCell>
        </UserObject>
        <UserObject label="&lt;div style=&quot;font-size: 1px&quot;&gt;&lt;font style=&quot;font-size: 12.7px; font-family: &amp;quot;Times New Roman&amp;quot;; direction: ltr; letter-spacing: 0px; line-height: 120%; opacity: 1;&quot;&gt;Писаренко А.В.&lt;br&gt;&lt;/font&gt;&lt;/div&gt;" tags="Background" id="12">
          <mxCell style="verticalAlign=middle;align=center;overflow=width;vsdxID=16;fillColor=none;gradientColor=none;shape=stencil(nZBLDoAgDERP0z3SIyjew0SURgSD+Lu9kMZoXLhwN9O+tukAlrNpJg1SzDH4QW/URgNYgZTkjA4UkwJUgGXng+6DX1zLfmoymdXo17xh5zmRJ6Q42BWCfc2oJfdAr+Yv+AP9Cb7OJ3H/2JG1HNGz/84klThPVCc=);strokeColor=none;points=[];labelBackgroundColor=none;rounded=0;html=1;whiteSpace=wrap;" parent="1" vertex="1">
            <mxGeometry x="488.188" y="1515.745" width="90.551" height="39.37" as="geometry" />
          </mxCell>
        </UserObject>
        <UserObject label="&lt;div style=&quot;font-size: 1px&quot;&gt;&lt;font style=&quot;font-size: 12.7px; font-family: &amp;quot;Times New Roman&amp;quot;; direction: ltr; letter-spacing: 0px; line-height: 120%; opacity: 1;&quot;&gt;Гулящий І.С.&lt;br&gt;&lt;/font&gt;&lt;/div&gt;" tags="Background" id="13">
          <mxCell style="verticalAlign=middle;align=center;overflow=width;vsdxID=17;fillColor=none;gradientColor=none;shape=stencil(nZBLDoAgDERP0z3SIyjew0SURgSD+Lu9kMZoXLhwN9O+tukAlrNpJg1SzDH4QW/URgNYgZTkjA4UkwJUgGXng+6DX1zLfmoymdXo17xh5zmRJ6Q42BWCfc2oJfdAr+Yv+AP9Cb7OJ3H/2JG1HNGz/84klThPVCc=);strokeColor=none;points=[];labelBackgroundColor=none;rounded=0;html=1;whiteSpace=wrap;" parent="1" vertex="1">
            <mxGeometry x="488.188" y="1476.375" width="90.551" height="39.37" as="geometry" />
          </mxCell>
        </UserObject>
        <UserObject label="&lt;div style=&quot;font-size: 1px&quot;&gt;&lt;font style=&quot;font-size: 14.11px; font-family: &amp;quot;Times New Roman&amp;quot;; direction: ltr; letter-spacing: 0px; line-height: 120%; opacity: 1;&quot;&gt;І&lt;/font&gt;&lt;font style=&quot;font-size: 14.11px; font-family: &amp;quot;Times New Roman&amp;quot;; direction: ltr; letter-spacing: 0px; line-height: 120%; opacity: 1;&quot;&gt;А&lt;/font&gt;&lt;font style=&quot;font-size: 14.11px; font-family: &amp;quot;Times New Roman&amp;quot;; direction: ltr; letter-spacing: 0px; line-height: 120%; opacity: 1;&quot;&gt;-3&lt;/font&gt;&lt;font style=&quot;font-size: 14.11px; font-family: &amp;quot;Times New Roman&amp;quot;; direction: ltr; letter-spacing: 0px; line-height: 120%; opacity: 1;&quot;&gt;1&lt;/font&gt;&lt;font style=&quot;font-size: 14.11px; font-family: &amp;quot;Times New Roman&amp;quot;; direction: ltr; letter-spacing: 0px; line-height: 120%; opacity: 1;&quot;&gt;мп&lt;/font&gt;&lt;font style=&quot;font-size:14.11px;font-family:Times New Roman;color:#ff0000;direction:ltr;letter-spacing:0px;line-height:120%;opacity:1&quot;&gt;&lt;br&gt;&lt;/font&gt;&lt;/div&gt;" tags="Background" id="14">
          <mxCell style="verticalAlign=middle;align=center;overflow=width;vsdxID=18;fillColor=none;gradientColor=none;shape=stencil(nZBLDoAgDERP0z3SIyjew0SURgSD+Lu9kMZoXLhwN9O+tukAlrNpJg1SzDH4QW/URgNYgZTkjA4UkwJUgGXng+6DX1zLfmoymdXo17xh5zmRJ6Q42BWCfc2oJfdAr+Yv+AP9Cb7OJ3H/2JG1HNGz/84klThPVCc=);strokeColor=none;points=[];labelBackgroundColor=none;rounded=0;html=1;whiteSpace=wrap;" parent="1" vertex="1">
            <mxGeometry x="488.188" y="1555.115" width="188.976" height="39.37" as="geometry" />
          </mxCell>
        </UserObject>
        <UserObject label="&lt;div style=&quot;font-size: 1px&quot;&gt;&lt;font style=&quot;font-size: 14.11px; font-family: &amp;quot;Times New Roman&amp;quot;; direction: ltr; letter-spacing: 0px; line-height: 120%; opacity: 1;&quot;&gt;Додаток&lt;/font&gt;&lt;font style=&quot;font-size: 14.11px; font-family: &amp;quot;Times New Roman&amp;quot;; direction: ltr; letter-spacing: 0px; line-height: 120%; opacity: 1;&quot;&gt;&amp;nbsp;E&lt;br&gt;&lt;/font&gt;&lt;/div&gt;" tags="Background" id="15">
          <mxCell style="verticalAlign=middle;align=center;overflow=width;vsdxID=19;fillColor=none;gradientColor=none;shape=stencil(nZBLDoAgDERP0z3SIyjew0SURgSD+Lu9kMZoXLhwN9O+tukAlrNpJg1SzDH4QW/URgNYgZTkjA4UkwJUgGXng+6DX1zLfmoymdXo17xh5zmRJ6Q42BWCfc2oJfdAr+Yv+AP9Cb7OJ3H/2JG1HNGz/84klThPVCc=);strokeColor=none;points=[];labelBackgroundColor=none;rounded=0;html=1;whiteSpace=wrap;" parent="1" vertex="1">
            <mxGeometry x="488.188" y="1594.485" width="188.976" height="39.37" as="geometry" />
          </mxCell>
        </UserObject>
        <UserObject label="&lt;div style=&quot;font-size: 1px&quot;&gt;&lt;font style=&quot;font-size: 25.4px; font-family: &amp;quot;Times New Roman&amp;quot;; direction: ltr; letter-spacing: 0px; line-height: 120%; opacity: 1;&quot;&gt;Еквайрингова платформа з використанням штучного інтелекту&lt;/font&gt;&lt;/div&gt;" tags="Background" id="16">
          <mxCell style="verticalAlign=middle;align=center;overflow=width;vsdxID=20;fillColor=none;gradientColor=none;shape=stencil(nZBLDoAgDERP0z3SIyjew0SURgSD+Lu9kMZoXLhwN9O+tukAlrNpJg1SzDH4QW/URgNYgZTkjA4UkwJUgGXng+6DX1zLfmoymdXo17xh5zmRJ6Q42BWCfc2oJfdAr+Yv+AP9Cb7OJ3H/2JG1HNGz/84klThPVCc=);strokeColor=none;points=[];labelBackgroundColor=none;rounded=0;html=1;whiteSpace=wrap;" parent="1" vertex="1">
            <mxGeometry x="677.164" y="1476.375" width="472.44" height="78.74" as="geometry" />
          </mxCell>
        </UserObject>
        <UserObject label="&lt;div style=&quot;&quot;&gt;&lt;font face=&quot;Times New Roman&quot;&gt;&lt;span style=&quot;font-size: 19.76px;&quot;&gt;Блок-схема вибору типу інвойса&lt;/span&gt;&lt;/font&gt;&lt;/div&gt;" tags="Background" id="17">
          <mxCell style="verticalAlign=middle;align=center;overflow=width;vsdxID=21;fillColor=none;gradientColor=none;shape=stencil(nZBLDoAgDERP0z3SIyjew0SURgSD+Lu9kMZoXLhwN9O+tukAlrNpJg1SzDH4QW/URgNYgZTkjA4UkwJUgGXng+6DX1zLfmoymdXo17xh5zmRJ6Q42BWCfc2oJfdAr+Yv+AP9Cb7OJ3H/2JG1HNGz/84klThPVCc=);strokeColor=none;points=[];labelBackgroundColor=none;rounded=0;html=1;whiteSpace=wrap;" parent="1" vertex="1">
            <mxGeometry x="677.164" y="1555.115" width="472.44" height="78.74" as="geometry" />
          </mxCell>
        </UserObject>
        <mxCell id="q2hZAFe-qQAoBacxC6d1-50" value="" style="group" vertex="1" connectable="0" parent="1">
          <mxGeometry x="220" y="40" width="818" height="1410" as="geometry" />
        </mxCell>
        <mxCell id="q2hZAFe-qQAoBacxC6d1-21" value="Вибір інвойсу" style="whiteSpace=wrap;strokeWidth=2;" vertex="1" parent="q2hZAFe-qQAoBacxC6d1-50">
          <mxGeometry x="329" width="161" height="40.66509711595056" as="geometry" />
        </mxCell>
        <mxCell id="q2hZAFe-qQAoBacxC6d1-22" value="Для однієї оплати?" style="rhombus;strokeWidth=2;whiteSpace=wrap;" vertex="1" parent="q2hZAFe-qQAoBacxC6d1-50">
          <mxGeometry x="315" y="82.16009417304296" width="187" height="155.1912889935256" as="geometry" />
        </mxCell>
        <mxCell id="q2hZAFe-qQAoBacxC6d1-23" value="Одноразовий" style="whiteSpace=wrap;strokeWidth=2;" vertex="1" parent="q2hZAFe-qQAoBacxC6d1-50">
          <mxGeometry x="224" y="297.10417892878166" width="157" height="40.66509711595056" as="geometry" />
        </mxCell>
        <mxCell id="q2hZAFe-qQAoBacxC6d1-24" value="Багаторазовий" style="whiteSpace=wrap;strokeWidth=2;" vertex="1" parent="q2hZAFe-qQAoBacxC6d1-50">
          <mxGeometry x="431" y="297.10417892878166" width="168" height="40.66509711595056" as="geometry" />
        </mxCell>
        <mxCell id="q2hZAFe-qQAoBacxC6d1-25" value="Оплата з конкретною сумою?" style="rhombus;strokeWidth=2;whiteSpace=wrap;" vertex="1" parent="q2hZAFe-qQAoBacxC6d1-50">
          <mxGeometry x="297" y="379.26427310182464" width="223" height="185.06768687463213" as="geometry" />
        </mxCell>
        <mxCell id="q2hZAFe-qQAoBacxC6d1-26" value="За довільними реквізитами?" style="rhombus;strokeWidth=2;whiteSpace=wrap;" vertex="1" parent="q2hZAFe-qQAoBacxC6d1-50">
          <mxGeometry x="383" y="624.0847557386699" width="173" height="143.57268981753973" as="geometry" />
        </mxCell>
        <mxCell id="q2hZAFe-qQAoBacxC6d1-27" value="Однореквізитний інвойс" style="whiteSpace=wrap;strokeWidth=2;" vertex="1" parent="q2hZAFe-qQAoBacxC6d1-50">
          <mxGeometry x="202" y="1090.4885226603885" width="239" height="40.66509711595056" as="geometry" />
        </mxCell>
        <mxCell id="q2hZAFe-qQAoBacxC6d1-28" value="Чи потрібно оплачувати багато реквізитів?" style="rhombus;strokeWidth=2;whiteSpace=wrap;" vertex="1" parent="q2hZAFe-qQAoBacxC6d1-50">
          <mxGeometry x="476" y="828.2401412595644" width="243" height="201.66568569746912" as="geometry" />
        </mxCell>
        <mxCell id="q2hZAFe-qQAoBacxC6d1-29" value="Мультиреквізитний інвойс" style="whiteSpace=wrap;strokeWidth=2;" vertex="1" parent="q2hZAFe-qQAoBacxC6d1-50">
          <mxGeometry x="491" y="1090.4885226603885" width="255" height="40.66509711595056" as="geometry" />
        </mxCell>
        <mxCell id="q2hZAFe-qQAoBacxC6d1-30" value="Тип платежу?" style="rhombus;strokeWidth=2;whiteSpace=wrap;" vertex="1" parent="q2hZAFe-qQAoBacxC6d1-50">
          <mxGeometry x="335" y="1171.8187168922896" width="149" height="123.65509123013538" as="geometry" />
        </mxCell>
        <mxCell id="q2hZAFe-qQAoBacxC6d1-31" value="Тип платежу в системі - AUTH" style="whiteSpace=wrap;strokeWidth=2;" vertex="1" parent="q2hZAFe-qQAoBacxC6d1-50">
          <mxGeometry y="1355.226603884638" width="239" height="54.773396115361976" as="geometry" />
        </mxCell>
        <mxCell id="q2hZAFe-qQAoBacxC6d1-32" value="Тип платежу в системі - PREAUTH" style="whiteSpace=wrap;strokeWidth=2;" vertex="1" parent="q2hZAFe-qQAoBacxC6d1-50">
          <mxGeometry x="289" y="1355.226603884638" width="239" height="54.773396115361976" as="geometry" />
        </mxCell>
        <mxCell id="q2hZAFe-qQAoBacxC6d1-33" value="Тип платежу в системі - SUBSCRIBE" style="whiteSpace=wrap;strokeWidth=2;" vertex="1" parent="q2hZAFe-qQAoBacxC6d1-50">
          <mxGeometry x="579" y="1355.226603884638" width="239" height="54.773396115361976" as="geometry" />
        </mxCell>
        <mxCell id="q2hZAFe-qQAoBacxC6d1-34" value="" style="curved=1;startArrow=none;endArrow=block;exitX=0.5;exitY=0.99;entryX=0.5;entryY=0;rounded=0;" edge="1" parent="q2hZAFe-qQAoBacxC6d1-50" source="q2hZAFe-qQAoBacxC6d1-21" target="q2hZAFe-qQAoBacxC6d1-22">
          <mxGeometry relative="1" as="geometry">
            <Array as="points" />
          </mxGeometry>
        </mxCell>
        <mxCell id="q2hZAFe-qQAoBacxC6d1-35" value="так" style="curved=1;startArrow=none;endArrow=block;exitX=0.09;exitY=1;entryX=0.5;entryY=0;rounded=0;" edge="1" parent="q2hZAFe-qQAoBacxC6d1-50" source="q2hZAFe-qQAoBacxC6d1-22" target="q2hZAFe-qQAoBacxC6d1-23">
          <mxGeometry relative="1" as="geometry">
            <Array as="points">
              <mxPoint x="303" y="267.22778104767514" />
            </Array>
          </mxGeometry>
        </mxCell>
        <mxCell id="q2hZAFe-qQAoBacxC6d1-36" value="ні" style="curved=1;startArrow=none;endArrow=block;exitX=0.91;exitY=1;entryX=0.5;entryY=0;rounded=0;" edge="1" parent="q2hZAFe-qQAoBacxC6d1-50" source="q2hZAFe-qQAoBacxC6d1-22" target="q2hZAFe-qQAoBacxC6d1-24">
          <mxGeometry relative="1" as="geometry">
            <Array as="points">
              <mxPoint x="515" y="267.22778104767514" />
            </Array>
          </mxGeometry>
        </mxCell>
        <mxCell id="q2hZAFe-qQAoBacxC6d1-37" value="" style="curved=1;startArrow=none;endArrow=block;exitX=0.5;exitY=0.99;entryX=0.11;entryY=0;rounded=0;" edge="1" parent="q2hZAFe-qQAoBacxC6d1-50" source="q2hZAFe-qQAoBacxC6d1-23" target="q2hZAFe-qQAoBacxC6d1-25">
          <mxGeometry relative="1" as="geometry">
            <Array as="points">
              <mxPoint x="303" y="358.51677457327844" />
            </Array>
          </mxGeometry>
        </mxCell>
        <mxCell id="q2hZAFe-qQAoBacxC6d1-38" value="" style="curved=1;startArrow=none;endArrow=block;exitX=0.5;exitY=0.99;entryX=0.89;entryY=0;rounded=0;" edge="1" parent="q2hZAFe-qQAoBacxC6d1-50" source="q2hZAFe-qQAoBacxC6d1-24" target="q2hZAFe-qQAoBacxC6d1-25">
          <mxGeometry relative="1" as="geometry">
            <Array as="points">
              <mxPoint x="515" y="358.51677457327844" />
            </Array>
          </mxGeometry>
        </mxCell>
        <mxCell id="q2hZAFe-qQAoBacxC6d1-39" value="так" style="curved=1;startArrow=none;endArrow=block;exitX=0.71;exitY=1;entryX=0.5;entryY=0;rounded=0;" edge="1" parent="q2hZAFe-qQAoBacxC6d1-50" source="q2hZAFe-qQAoBacxC6d1-25" target="q2hZAFe-qQAoBacxC6d1-26">
          <mxGeometry relative="1" as="geometry">
            <Array as="points">
              <mxPoint x="470" y="594.2083578575633" />
            </Array>
          </mxGeometry>
        </mxCell>
        <mxCell id="q2hZAFe-qQAoBacxC6d1-40" value="ні" style="curved=1;startArrow=none;endArrow=block;exitX=0;exitY=0.95;entryX=0.37;entryY=-0.01;rounded=0;" edge="1" parent="q2hZAFe-qQAoBacxC6d1-50" source="q2hZAFe-qQAoBacxC6d1-25" target="q2hZAFe-qQAoBacxC6d1-27">
          <mxGeometry relative="1" as="geometry">
            <Array as="points">
              <mxPoint x="243" y="594.2083578575633" />
              <mxPoint x="243" y="1059.78222483814" />
            </Array>
          </mxGeometry>
        </mxCell>
        <mxCell id="q2hZAFe-qQAoBacxC6d1-41" value="так" style="curved=1;startArrow=none;endArrow=block;exitX=0;exitY=0.92;entryX=0.5;entryY=-0.01;rounded=0;" edge="1" parent="q2hZAFe-qQAoBacxC6d1-50" source="q2hZAFe-qQAoBacxC6d1-26" target="q2hZAFe-qQAoBacxC6d1-27">
          <mxGeometry relative="1" as="geometry">
            <Array as="points">
              <mxPoint x="321" y="798.3637433784579" />
            </Array>
          </mxGeometry>
        </mxCell>
        <mxCell id="q2hZAFe-qQAoBacxC6d1-42" value="ні" style="curved=1;startArrow=none;endArrow=block;exitX=1;exitY=0.99;entryX=0.5;entryY=0;rounded=0;" edge="1" parent="q2hZAFe-qQAoBacxC6d1-50" source="q2hZAFe-qQAoBacxC6d1-26" target="q2hZAFe-qQAoBacxC6d1-28">
          <mxGeometry relative="1" as="geometry">
            <Array as="points">
              <mxPoint x="597" y="798.3637433784579" />
            </Array>
          </mxGeometry>
        </mxCell>
        <mxCell id="q2hZAFe-qQAoBacxC6d1-43" value="так" style="curved=1;startArrow=none;endArrow=block;exitX=0.57;exitY=1;entryX=0.5;entryY=-0.01;rounded=0;" edge="1" parent="q2hZAFe-qQAoBacxC6d1-50" source="q2hZAFe-qQAoBacxC6d1-28" target="q2hZAFe-qQAoBacxC6d1-29">
          <mxGeometry relative="1" as="geometry">
            <Array as="points">
              <mxPoint x="619" y="1059.78222483814" />
            </Array>
          </mxGeometry>
        </mxCell>
        <mxCell id="q2hZAFe-qQAoBacxC6d1-44" value="ні" style="curved=1;startArrow=none;endArrow=block;exitX=0.07;exitY=1;entryX=0.74;entryY=-0.01;rounded=0;" edge="1" parent="q2hZAFe-qQAoBacxC6d1-50" source="q2hZAFe-qQAoBacxC6d1-28" target="q2hZAFe-qQAoBacxC6d1-27">
          <mxGeometry relative="1" as="geometry">
            <Array as="points">
              <mxPoint x="463" y="1059.78222483814" />
            </Array>
          </mxGeometry>
        </mxCell>
        <mxCell id="q2hZAFe-qQAoBacxC6d1-45" value="" style="curved=1;startArrow=none;endArrow=block;exitX=0.5;exitY=0.98;entryX=0.06;entryY=0;rounded=0;" edge="1" parent="q2hZAFe-qQAoBacxC6d1-50" source="q2hZAFe-qQAoBacxC6d1-27" target="q2hZAFe-qQAoBacxC6d1-30">
          <mxGeometry relative="1" as="geometry">
            <Array as="points">
              <mxPoint x="321" y="1151.0712183637434" />
            </Array>
          </mxGeometry>
        </mxCell>
        <mxCell id="q2hZAFe-qQAoBacxC6d1-46" value="" style="curved=1;startArrow=none;endArrow=block;exitX=0.5;exitY=0.98;entryX=1;entryY=0.26;rounded=0;" edge="1" parent="q2hZAFe-qQAoBacxC6d1-50" source="q2hZAFe-qQAoBacxC6d1-29" target="q2hZAFe-qQAoBacxC6d1-30">
          <mxGeometry relative="1" as="geometry">
            <Array as="points">
              <mxPoint x="619" y="1151.0712183637434" />
            </Array>
          </mxGeometry>
        </mxCell>
        <mxCell id="q2hZAFe-qQAoBacxC6d1-47" value="Авторизаційний" style="curved=1;startArrow=none;endArrow=block;exitX=0;exitY=0.69;entryX=0.5;entryY=0;rounded=0;" edge="1" parent="q2hZAFe-qQAoBacxC6d1-50" source="q2hZAFe-qQAoBacxC6d1-30" target="q2hZAFe-qQAoBacxC6d1-31">
          <mxGeometry relative="1" as="geometry">
            <Array as="points">
              <mxPoint x="120" y="1325.3502060035316" />
            </Array>
          </mxGeometry>
        </mxCell>
        <mxCell id="q2hZAFe-qQAoBacxC6d1-48" value="Преавторизаційний" style="curved=1;startArrow=none;endArrow=block;exitX=0.5;exitY=1;entryX=0.5;entryY=0;rounded=0;" edge="1" parent="q2hZAFe-qQAoBacxC6d1-50" source="q2hZAFe-qQAoBacxC6d1-30" target="q2hZAFe-qQAoBacxC6d1-32">
          <mxGeometry relative="1" as="geometry">
            <Array as="points" />
          </mxGeometry>
        </mxCell>
        <mxCell id="q2hZAFe-qQAoBacxC6d1-49" value="Підписка" style="curved=1;startArrow=none;endArrow=block;exitX=1;exitY=0.69;entryX=0.5;entryY=0;rounded=0;" edge="1" parent="q2hZAFe-qQAoBacxC6d1-50" source="q2hZAFe-qQAoBacxC6d1-30" target="q2hZAFe-qQAoBacxC6d1-33">
          <mxGeometry relative="1" as="geometry">
            <Array as="points">
              <mxPoint x="698" y="1325.3502060035316" />
            </Array>
          </mxGeometry>
        </mxCell>
      </root>
    </mxGraphModel>
  </diagram>
  <diagram name="Горизонтальний" id="Горизонтальний">
    <mxGraphModel dx="1420" dy="778" grid="1" gridSize="10" guides="1" tooltips="1" connect="1" arrows="1" fold="1" page="1" pageScale="1" pageWidth="1654" pageHeight="1169" math="0" shadow="0">
      <root>
        <mxCell id="0" />
        <mxCell id="1" parent="0" />
        <UserObject label="" tags="Background" id="2">
          <mxCell style="vsdxID=1;fillColor=none;gradientColor=none;shape=stencil(nZBLDoAgDERP0z3SIyjew0SURgSD+Lu9kMZoXLhwN9O+tukAlrNpJg1SzDH4QW/URgNYgZTkjA4UkwJUgGXng+6DX1zLfmoymdXo17xh5zmRJ6Q42BWCfc2oJfdAr+Yv+AP9Cb7OJ3H/2JG1HNGz/84klThPVCc=);strokeColor=#000000;strokeWidth=2;points=[];labelBackgroundColor=none;rounded=0;html=1;whiteSpace=wrap;" parent="1" vertex="1">
            <mxGeometry x="78.74" y="19.685" width="1555.115" height="1129.9189999999999" as="geometry" />
          </mxCell>
        </UserObject>
        <UserObject label="" tags="Background" id="3">
          <mxCell style="vsdxID=3;fillColor=#FFFFFF;gradientColor=none;shape=stencil(jU9bCoAwDDtN/2eLJ/BxD8HphrrJnK/bu9EPpyD4l7RJSICKRTWzBBSLd3aQu269AioBURslnfYBAVVARWed7J1dTct8bqIyosluMeFgn4gOFGfKahaO2nwKMf+rzMQjNIC7Cq9If+/a4cSTqboA);strokeColor=#000000;strokeWidth=2;points=[];labelBackgroundColor=#ffffff;rounded=0;html=1;whiteSpace=wrap;" parent="1" vertex="1">
            <mxGeometry x="905.51" y="992.1239999999999" width="1" height="157.48" as="geometry" />
          </mxCell>
        </UserObject>
        <UserObject label="" tags="Background" id="4">
          <mxCell style="vsdxID=5;fillColor=#FFFFFF;gradientColor=none;shape=stencil(jU9bCoAwDDtN/2eLJ/BxD8HphrrJnK/bu9EPpyD4l7RJSICKRTWzBBSLd3aQu269AioBURslnfYBAVVARWed7J1dTct8bqIyosluMeFgn4gOFGfKahaO2nwKMf+rzMQjNIC7Cq9If+/a4cSTqboA);strokeColor=#000000;strokeWidth=2;points=[];labelBackgroundColor=#ffffff;rounded=0;html=1;whiteSpace=wrap;" parent="1" vertex="1">
            <mxGeometry x="1161.415" y="992.1239999999999" width="1" height="157.48" as="geometry" />
          </mxCell>
        </UserObject>
        <UserObject label="" tags="Background" id="5">
          <mxCell style="vsdxID=6;fillColor=#FFFFFF;gradientColor=none;shape=stencil(jU9bCoAwDDtN/2eLJ/BxD8HphrrJnK/bu9EPpyD4l7RJSICKRTWzBBSLd3aQu269AioBURslnfYBAVVARWed7J1dTct8bqIyosluMeFgn4gOFGfKahaO2nwKMf+rzMQjNIC7Cq9If+/a4cSTqboA);strokeColor=#000000;strokeWidth=2;points=[];labelBackgroundColor=#ffffff;rounded=0;html=1;whiteSpace=wrap;" parent="1" vertex="1">
            <mxGeometry x="972.439" y="992.1239999999999" width="1" height="157.48" as="geometry" />
          </mxCell>
        </UserObject>
        <UserObject label="" tags="Background" id="6">
          <mxCell style="vsdxID=7;fillColor=#FFFFFF;gradientColor=none;shape=stencil(jU9bCoAwDDtN/2eLJ/BxD8HphrrJnK/bu9EPpyD4l7RJSICKRTWzBBSLd3aQu269AioBURslnfYBAVVARWed7J1dTct8bqIyosluMeFgn4gOFGfKahaO2nwKMf+rzMQjNIC7Cq9If+/a4cSTqboA);strokeColor=#000000;strokeWidth=2;points=[];labelBackgroundColor=#ffffff;rounded=0;html=1;whiteSpace=wrap;" parent="1" vertex="1">
            <mxGeometry x="1062.99" y="992.1239999999999" width="1" height="78.74" as="geometry" />
          </mxCell>
        </UserObject>
        <UserObject label="" tags="Background" id="18">
          <mxCell style="vsdxID=2;edgeStyle=none;startArrow=none;endArrow=none;startSize=5;endSize=5;strokeWidth=2;strokeColor=#000000;spacingTop=0;spacingBottom=0;spacingLeft=0;spacingRight=0;verticalAlign=middle;html=1;labelBackgroundColor=#ffffff;rounded=0;" parent="1" edge="1">
            <mxGeometry relative="1" as="geometry">
              <mxPoint as="offset" />
              <Array as="points" />
              <mxPoint x="905.51" y="992.1239999999999" as="sourcePoint" />
              <mxPoint x="1633.855" y="992.1239999999999" as="targetPoint" />
            </mxGeometry>
          </mxCell>
        </UserObject>
        <UserObject label="" tags="Background" id="7">
          <mxCell style="vsdxID=8;fillColor=#FFFFFF;gradientColor=none;shape=stencil(jU9bCoAwDDtN/2eLJ/BxD8HphrrJnK/bu9EPpyD4l7RJSICKRTWzBBSLd3aQu269AioBURslnfYBAVVARWed7J1dTct8bqIyosluMeFgn4gOFGfKahaO2nwKMf+rzMQjNIC7Cq9If+/a4cSTqboA);strokeColor=#000000;strokeWidth=2;points=[];labelBackgroundColor=#ffffff;rounded=0;html=1;whiteSpace=wrap;" parent="1" vertex="1">
            <mxGeometry x="1122.0449999999998" y="992.1239999999999" width="1" height="78.74" as="geometry" />
          </mxCell>
        </UserObject>
        <UserObject label="" tags="Background" id="19">
          <mxCell style="vsdxID=4;edgeStyle=none;startArrow=none;endArrow=none;startSize=5;endSize=5;strokeWidth=2;strokeColor=#000000;spacingTop=0;spacingBottom=0;spacingLeft=0;spacingRight=0;verticalAlign=middle;html=1;labelBackgroundColor=#ffffff;rounded=0;" parent="1" edge="1">
            <mxGeometry relative="1" as="geometry">
              <mxPoint as="offset" />
              <Array as="points" />
              <mxPoint x="905.51" y="1070.864" as="sourcePoint" />
              <mxPoint x="1633.855" y="1070.864" as="targetPoint" />
            </mxGeometry>
          </mxCell>
        </UserObject>
        <UserObject label="&lt;div style=&quot;font-size: 1px&quot;&gt;&lt;font style=&quot;font-size:12.7px;font-family:Times New Roman;color:#000000;direction:ltr;letter-spacing:0px;line-height:120%;opacity:1&quot;&gt;Розробив&lt;br/&gt;&lt;/font&gt;&lt;/div&gt;" tags="Background" id="8">
          <mxCell style="verticalAlign=middle;align=center;overflow=width;vsdxID=11;fillColor=none;gradientColor=none;shape=stencil(nZBLDoAgDERP0z3SIyjew0SURgSD+Lu9kMZoXLhwN9O+tukAlrNpJg1SzDH4QW/URgNYgZTkjA4UkwJUgGXng+6DX1zLfmoymdXo17xh5zmRJ6Q42BWCfc2oJfdAr+Yv+AP9Cb7OJ3H/2JG1HNGz/84klThPVCc=);strokeColor=none;points=[];labelBackgroundColor=none;rounded=0;html=1;whiteSpace=wrap;" parent="1" vertex="1">
            <mxGeometry x="905.51" y="992.1239999999999" width="66.929" height="39.37" as="geometry" />
          </mxCell>
        </UserObject>
        <UserObject label="&lt;div style=&quot;font-size: 1px&quot;&gt;&lt;font style=&quot;font-size:12.7px;font-family:Times New Roman;color:#000000;direction:ltr;letter-spacing:0px;line-height:120%;opacity:1&quot;&gt;Перевірив&lt;br/&gt;&lt;/font&gt;&lt;/div&gt;" tags="Background" id="9">
          <mxCell style="verticalAlign=middle;align=center;overflow=width;vsdxID=12;fillColor=none;gradientColor=none;shape=stencil(nZBLDoAgDERP0z3SIyjew0SURgSD+Lu9kMZoXLhwN9O+tukAlrNpJg1SzDH4QW/URgNYgZTkjA4UkwJUgGXng+6DX1zLfmoymdXo17xh5zmRJ6Q42BWCfc2oJfdAr+Yv+AP9Cb7OJ3H/2JG1HNGz/84klThPVCc=);strokeColor=none;points=[];labelBackgroundColor=none;rounded=0;html=1;whiteSpace=wrap;" parent="1" vertex="1">
            <mxGeometry x="905.51" y="1031.494" width="66.929" height="39.37" as="geometry" />
          </mxCell>
        </UserObject>
        <UserObject label="&lt;div style=&quot;font-size: 1px&quot;&gt;&lt;font style=&quot;font-size:12.7px;font-family:Times New Roman;color:#000000;direction:ltr;letter-spacing:0px;line-height:120%;opacity:1&quot;&gt;Група&lt;br/&gt;&lt;/font&gt;&lt;/div&gt;" tags="Background" id="10">
          <mxCell style="verticalAlign=middle;align=center;overflow=width;vsdxID=13;fillColor=none;gradientColor=none;shape=stencil(nZBLDoAgDERP0z3SIyjew0SURgSD+Lu9kMZoXLhwN9O+tukAlrNpJg1SzDH4QW/URgNYgZTkjA4UkwJUgGXng+6DX1zLfmoymdXo17xh5zmRJ6Q42BWCfc2oJfdAr+Yv+AP9Cb7OJ3H/2JG1HNGz/84klThPVCc=);strokeColor=none;points=[];labelBackgroundColor=none;rounded=0;html=1;whiteSpace=wrap;" parent="1" vertex="1">
            <mxGeometry x="905.51" y="1070.864" width="66.929" height="39.37" as="geometry" />
          </mxCell>
        </UserObject>
        <UserObject label="&lt;div style=&quot;font-size: 1px&quot;&gt;&lt;font style=&quot;font-size:8.47px;font-family:Times New Roman;color:#000000;direction:ltr;letter-spacing:0px;line-height:120%;opacity:1&quot;&gt;Позначення документа&lt;br/&gt;&lt;/font&gt;&lt;/div&gt;" tags="Background" id="11">
          <mxCell style="verticalAlign=middle;align=center;overflow=width;vsdxID=14;fillColor=none;gradientColor=none;shape=stencil(nZBLDoAgDERP0z3SIyjew0SURgSD+Lu9kMZoXLhwN9O+tukAlrNpJg1SzDH4QW/URgNYgZTkjA4UkwJUgGXng+6DX1zLfmoymdXo17xh5zmRJ6Q42BWCfc2oJfdAr+Yv+AP9Cb7OJ3H/2JG1HNGz/84klThPVCc=);strokeColor=none;points=[];labelBackgroundColor=none;rounded=0;html=1;whiteSpace=wrap;" parent="1" vertex="1">
            <mxGeometry x="905.51" y="1110.234" width="66.929" height="39.37" as="geometry" />
          </mxCell>
        </UserObject>
        <UserObject label="" tags="Background" id="20">
          <mxCell style="vsdxID=9;edgeStyle=none;startArrow=none;endArrow=none;startSize=5;endSize=5;strokeWidth=2;strokeColor=#000000;spacingTop=0;spacingBottom=0;spacingLeft=0;spacingRight=0;verticalAlign=middle;html=1;labelBackgroundColor=#ffffff;rounded=0;" parent="1" edge="1">
            <mxGeometry relative="1" as="geometry">
              <mxPoint as="offset" />
              <Array as="points" />
              <mxPoint x="905.51" y="1031.494" as="sourcePoint" />
              <mxPoint x="1161.415" y="1031.494" as="targetPoint" />
            </mxGeometry>
          </mxCell>
        </UserObject>
        <UserObject label="" tags="Background" id="21">
          <mxCell style="vsdxID=10;edgeStyle=none;startArrow=none;endArrow=none;startSize=5;endSize=5;strokeWidth=2;strokeColor=#000000;spacingTop=0;spacingBottom=0;spacingLeft=0;spacingRight=0;verticalAlign=middle;html=1;labelBackgroundColor=#ffffff;rounded=0;" parent="1" edge="1">
            <mxGeometry relative="1" as="geometry">
              <mxPoint as="offset" />
              <Array as="points" />
              <mxPoint x="905.51" y="1110.234" as="sourcePoint" />
              <mxPoint x="1161.415" y="1110.234" as="targetPoint" />
            </mxGeometry>
          </mxCell>
        </UserObject>
        <UserObject label="&lt;div style=&quot;font-size: 1px&quot;&gt;&lt;font style=&quot;font-size:12.7px;font-family:Times New Roman;color:#ff0000;direction:ltr;letter-spacing:0px;line-height:120%;opacity:1&quot;&gt;Мельник&lt;br/&gt;&lt;/font&gt;&lt;/div&gt;" tags="Background" id="12">
          <mxCell style="verticalAlign=middle;align=center;overflow=width;vsdxID=15;fillColor=none;gradientColor=none;shape=stencil(nZBLDoAgDERP0z3SIyjew0SURgSD+Lu9kMZoXLhwN9O+tukAlrNpJg1SzDH4QW/URgNYgZTkjA4UkwJUgGXng+6DX1zLfmoymdXo17xh5zmRJ6Q42BWCfc2oJfdAr+Yv+AP9Cb7OJ3H/2JG1HNGz/84klThPVCc=);strokeColor=none;points=[];labelBackgroundColor=none;rounded=0;html=1;whiteSpace=wrap;" parent="1" vertex="1">
            <mxGeometry x="972.439" y="1031.494" width="90.551" height="39.37" as="geometry" />
          </mxCell>
        </UserObject>
        <UserObject label="&lt;div style=&quot;font-size: 1px&quot;&gt;&lt;font style=&quot;font-size:12.7px;font-family:Times New Roman;color:#ff0000;direction:ltr;letter-spacing:0px;line-height:120%;opacity:1&quot;&gt;Коваль&lt;br/&gt;&lt;/font&gt;&lt;/div&gt;" tags="Background" id="13">
          <mxCell style="verticalAlign=middle;align=center;overflow=width;vsdxID=16;fillColor=none;gradientColor=none;shape=stencil(nZBLDoAgDERP0z3SIyjew0SURgSD+Lu9kMZoXLhwN9O+tukAlrNpJg1SzDH4QW/URgNYgZTkjA4UkwJUgGXng+6DX1zLfmoymdXo17xh5zmRJ6Q42BWCfc2oJfdAr+Yv+AP9Cb7OJ3H/2JG1HNGz/84klThPVCc=);strokeColor=none;points=[];labelBackgroundColor=none;rounded=0;html=1;whiteSpace=wrap;" parent="1" vertex="1">
            <mxGeometry x="972.439" y="992.12" width="90.551" height="39.37" as="geometry" />
          </mxCell>
        </UserObject>
        <UserObject label="&lt;div style=&quot;font-size: 1px&quot;&gt;&lt;font style=&quot;font-size:14.11px;font-family:Times New Roman;color:#000000;direction:ltr;letter-spacing:0px;line-height:120%;opacity:1&quot;&gt;І&lt;/font&gt;&lt;font style=&quot;font-size:14.11px;font-family:Times New Roman;color:#ff0000;direction:ltr;letter-spacing:0px;line-height:120%;opacity:1&quot;&gt;А&lt;/font&gt;&lt;font style=&quot;font-size:14.11px;font-family:Times New Roman;color:#000000;direction:ltr;letter-spacing:0px;line-height:120%;opacity:1&quot;&gt;-3&lt;/font&gt;&lt;font style=&quot;font-size:14.11px;font-family:Times New Roman;color:#ff0000;direction:ltr;letter-spacing:0px;line-height:120%;opacity:1&quot;&gt;1&lt;/font&gt;&lt;font style=&quot;font-size:14.11px;font-family:Times New Roman;color:#000000;direction:ltr;letter-spacing:0px;line-height:120%;opacity:1&quot;&gt;мп&lt;/font&gt;&lt;font style=&quot;font-size:14.11px;font-family:Times New Roman;color:#ff0000;direction:ltr;letter-spacing:0px;line-height:120%;opacity:1&quot;&gt;&lt;br/&gt;&lt;/font&gt;&lt;/div&gt;" tags="Background" id="14">
          <mxCell style="verticalAlign=middle;align=center;overflow=width;vsdxID=17;fillColor=none;gradientColor=none;shape=stencil(nZBLDoAgDERP0z3SIyjew0SURgSD+Lu9kMZoXLhwN9O+tukAlrNpJg1SzDH4QW/URgNYgZTkjA4UkwJUgGXng+6DX1zLfmoymdXo17xh5zmRJ6Q42BWCfc2oJfdAr+Yv+AP9Cb7OJ3H/2JG1HNGz/84klThPVCc=);strokeColor=none;points=[];labelBackgroundColor=none;rounded=0;html=1;whiteSpace=wrap;" parent="1" vertex="1">
            <mxGeometry x="972.439" y="1070.864" width="188.976" height="39.37" as="geometry" />
          </mxCell>
        </UserObject>
        <UserObject label="&lt;div style=&quot;font-size: 1px&quot;&gt;&lt;font style=&quot;font-size:14.11px;font-family:Times New Roman;color:#000000;direction:ltr;letter-spacing:0px;line-height:120%;opacity:1&quot;&gt;Додаток&lt;/font&gt;&lt;font style=&quot;font-size:14.11px;font-family:Times New Roman;color:#ff0000;direction:ltr;letter-spacing:0px;line-height:120%;opacity:1&quot;&gt; А&lt;br/&gt;&lt;/font&gt;&lt;/div&gt;" tags="Background" id="15">
          <mxCell style="verticalAlign=middle;align=center;overflow=width;vsdxID=18;fillColor=none;gradientColor=none;shape=stencil(nZBLDoAgDERP0z3SIyjew0SURgSD+Lu9kMZoXLhwN9O+tukAlrNpJg1SzDH4QW/URgNYgZTkjA4UkwJUgGXng+6DX1zLfmoymdXo17xh5zmRJ6Q42BWCfc2oJfdAr+Yv+AP9Cb7OJ3H/2JG1HNGz/84klThPVCc=);strokeColor=none;points=[];labelBackgroundColor=none;rounded=0;html=1;whiteSpace=wrap;" parent="1" vertex="1">
            <mxGeometry x="972.439" y="1110.234" width="188.976" height="39.37" as="geometry" />
          </mxCell>
        </UserObject>
        <UserObject label="&lt;div style=&quot;font-size: 1px&quot;&gt;&lt;font style=&quot;font-size:25.4px;font-family:Times New Roman;color:#ff0000;direction:ltr;letter-spacing:0px;line-height:120%;opacity:1&quot;&gt;Інформаційна система підтримки прийняття рішень в агротехнічній галузі&lt;br/&gt;&lt;/font&gt;&lt;/div&gt;" tags="Background" id="16">
          <mxCell style="verticalAlign=middle;align=center;overflow=width;vsdxID=19;fillColor=none;gradientColor=none;shape=stencil(nZBLDoAgDERP0z3SIyjew0SURgSD+Lu9kMZoXLhwN9O+tukAlrNpJg1SzDH4QW/URgNYgZTkjA4UkwJUgGXng+6DX1zLfmoymdXo17xh5zmRJ6Q42BWCfc2oJfdAr+Yv+AP9Cb7OJ3H/2JG1HNGz/84klThPVCc=);strokeColor=none;points=[];labelBackgroundColor=none;rounded=0;html=1;whiteSpace=wrap;" parent="1" vertex="1">
            <mxGeometry x="1161.415" y="992.1239999999999" width="472.44" height="78.74" as="geometry" />
          </mxCell>
        </UserObject>
        <UserObject label="&lt;div style=&quot;font-size: 1px&quot;&gt;&lt;font style=&quot;font-size:19.76px;font-family:Times New Roman;color:#ff0000;direction:ltr;letter-spacing:0px;line-height:120%;opacity:1&quot;&gt;Структурна схема&lt;br/&gt;&lt;/font&gt;&lt;/div&gt;" tags="Background" id="17">
          <mxCell style="verticalAlign=middle;align=center;overflow=width;vsdxID=20;fillColor=none;gradientColor=none;shape=stencil(nZBLDoAgDERP0z3SIyjew0SURgSD+Lu9kMZoXLhwN9O+tukAlrNpJg1SzDH4QW/URgNYgZTkjA4UkwJUgGXng+6DX1zLfmoymdXo17xh5zmRJ6Q42BWCfc2oJfdAr+Yv+AP9Cb7OJ3H/2JG1HNGz/84klThPVCc=);strokeColor=none;points=[];labelBackgroundColor=none;rounded=0;html=1;whiteSpace=wrap;" parent="1" vertex="1">
            <mxGeometry x="1161.415" y="1070.864" width="472.44" height="78.74" as="geometry" />
          </mxCell>
        </UserObject>
      </root>
    </mxGraphModel>
  </diagram>
</mxfile>
